<?xml version="1.0" encoding="utf-8"?>
<!-- Generator: Adobe Illustrator 17.1.0, SVG Export Plug-In . SVG Version: 6.00 Build 0)  -->
<!DOCTYPE svg PUBLIC "-//W3C//DTD SVG 1.1//EN" "http://www.w3.org/Graphics/SVG/1.1/DTD/svg11.dtd">
<svg version="1.1" id="Layer_1" xmlns="http://www.w3.org/2000/svg" xmlns:xlink="http://www.w3.org/1999/xlink" x="0px" y="0px"
	 viewBox="0 0 270 61.4" enable-background="new 0 0 270 61.4" xml:space="preserve">
<g>
	<g>
		<g>
			<g>
				<path fill="#6096C9" d="M35.3,58.5L35.3,58.5c-1.7,0-3.3-0.3-4.9-0.9c-1.5-0.6-3-1.6-4.2-2.8c-1.2-1.2-2.2-2.7-2.8-4.2
					c-0.6-1.5-0.9-3.2-0.9-4.8c0-0.4,0-0.8,0-1.1c1.3-0.1,2.5-0.4,3.7-0.9c1.4-0.6,2.8-1.4,3.9-2.5c-0.5,0.6-0.9,1.3-1.2,1.9
					c-0.3,0.8-0.5,1.7-0.5,2.6c0,0.9,0.2,1.8,0.5,2.6c0.3,0.8,0.8,1.6,1.5,2.3c0.7,0.7,1.4,1.2,2.3,1.5c0.8,0.3,1.7,0.5,2.6,0.5h0
					c0.9,0,1.8-0.2,2.6-0.5c0.8-0.3,1.6-0.8,2.3-1.5c0.7-0.7,1.2-1.4,1.5-2.3c0.3-0.8,0.5-1.7,0.5-2.6s-0.2-1.8-0.5-2.6
					c-0.3-0.7-0.7-1.4-1.2-2c2.2,2,4.9,3.1,7.6,3.3c0,0.4,0.1,0.8,0.1,1.2c0,1.6-0.3,3.3-0.9,4.8c-0.6,1.5-1.6,3-2.8,4.2
					c-1.2,1.2-2.7,2.2-4.2,2.8C38.6,58.2,36.9,58.5,35.3,58.5"/>
				<path fill="#6096C9" d="M39.9,40.6c-0.6-0.6-2.5-2.4-4.7-4.6c1.2-1.2,2.4-2.4,3.5-3.6c0.2-0.2,0.4-0.4,0.7-0.7
					c2,2,3.7,3.6,4.5,4.4c0.3,0.3,0.4,0.4,0.4,0.4l0,0l0,0c0.1,0.1,0.1,0.2,0.2,0.2c-0.2-0.1-0.3-0.3-0.4-0.4L39.9,40.6"/>
				<path fill="#668FB6" d="M25.9,36.9c0.1-0.1,0.2-0.2,0.3-0.3l0,0l0,0C26.1,36.7,26,36.8,25.9,36.9"/>
				<path fill="#6096C9" d="M31,31.8c-1.9-1.8-3.6-3.6-4.8-4.8l-0.1-0.1c0.1,0.1,0.2,0.1,0.2,0.2l4.2-4.2c1.2,1.2,2.9,2.9,4.7,4.7
					C33.9,28.9,32.4,30.4,31,31.8"/>
				<path fill="#668FB6" d="M44.3,26.9L44.3,26.9c0.1-0.1,0.2-0.2,0.2-0.2C44.5,26.7,44.4,26.8,44.3,26.9"/>
				<path fill="#6096C9" d="M30.3,22.7c-2.2-2.1-4.9-3.3-7.8-3.6c0-0.4-0.1-0.8-0.1-1.1c0-1.6,0.3-3.3,0.9-4.8
					c0.6-1.5,1.6-3,2.8-4.2c1.2-1.2,2.7-2.2,4.2-2.8c1.5-0.6,3.2-0.9,4.8-0.9c1.6,0,3.3,0.3,4.8,0.9c1.5,0.6,3,1.6,4.2,2.8
					c2.5,2.5,3.7,5.7,3.7,8.9c0,0.4,0,0.8-0.1,1.1c-1.3,0.1-2.6,0.4-3.8,0.9c-1.4,0.6-2.7,1.4-3.9,2.5c1.2-1.3,1.8-2.9,1.8-4.5
					c0-1.7-0.6-3.4-2-4.7c-0.7-0.7-1.4-1.2-2.3-1.5c-0.8-0.3-1.7-0.5-2.6-0.5h0c-0.9,0-1.8,0.2-2.6,0.5c-0.8,0.3-1.6,0.8-2.3,1.5
					c-0.7,0.7-1.2,1.4-1.5,2.3c-0.3,0.8-0.5,1.7-0.5,2.6c0,0.9,0.2,1.8,0.5,2.6C29.2,21.3,29.7,22,30.3,22.7"/>
				<path fill="#8C9F3B" d="M21.4,44.6c-1.6,0-3.3-0.3-4.8-0.9c-1.5-0.6-3-1.6-4.2-2.8c-1.2-1.2-2.2-2.7-2.8-4.2
					c-0.6-1.5-0.9-3.2-0.9-4.8c0-1.6,0.3-3.3,0.9-4.8c0.6-1.5,1.6-3,2.8-4.2c1.2-1.2,2.7-2.1,4.2-2.8c1.5-0.6,3.1-0.9,4.7-0.9
					c0.4,0,0.9,0,1.3,0.1c0.1,1.3,0.4,2.5,0.9,3.7c0.6,1.5,1.5,2.9,2.7,4.1c-1.4-1.3-3.1-1.9-4.9-1.9c-0.9,0-1.7,0.2-2.5,0.5
					c-0.8,0.3-1.5,0.8-2.2,1.4c-0.7,0.7-1.2,1.4-1.5,2.3c-0.3,0.8-0.5,1.7-0.5,2.6c0,0.9,0.2,1.8,0.5,2.6c0.3,0.8,0.8,1.6,1.5,2.3
					l0,0l0,0c0.7,0.7,1.4,1.2,2.3,1.5c0.8,0.3,1.7,0.5,2.6,0.5c0.9,0,1.8-0.2,2.6-0.5c0.7-0.3,1.4-0.7,2-1.2
					c-1.1,1.2-1.9,2.5-2.5,3.9c-0.5,1.2-0.8,2.4-0.9,3.7C22.1,44.6,21.7,44.6,21.4,44.6 M49.2,44.5c-0.4,0-0.8,0-1.2-0.1
					c-0.1-1.2-0.4-2.4-0.9-3.6c-0.6-1.5-1.5-2.8-2.6-4c1.3,1.1,3,1.7,4.6,1.7c0.9,0,1.7-0.2,2.5-0.5c0.8-0.3,1.5-0.8,2.2-1.4
					c0.7-0.7,1.2-1.4,1.5-2.3c0.3-0.8,0.5-1.7,0.5-2.6c0-0.9-0.2-1.8-0.5-2.6c-0.3-0.8-0.8-1.6-1.5-2.3c-0.7-0.7-1.4-1.2-2.3-1.5
					c-0.8-0.3-1.7-0.5-2.6-0.5c-0.9,0-1.8,0.2-2.6,0.5c-0.7,0.3-1.3,0.7-1.9,1.2c2-2.2,3.2-4.9,3.5-7.6c0.3,0,0.7,0,1,0
					c1.6,0,3.3,0.3,4.8,0.9c1.5,0.6,3,1.6,4.2,2.8c1.2,1.2,2.2,2.7,2.8,4.2c0.6,1.5,0.9,3.2,0.9,4.8c0,1.6-0.3,3.3-0.9,4.8
					c-0.6,1.5-1.6,3-2.8,4.2c-1.2,1.2-2.7,2.1-4.2,2.8C52.4,44.2,50.8,44.5,49.2,44.5 M30.1,41.2c0.1-0.1,0.2-0.2,0.3-0.3l-4.2-4.2
					c1.2-1.2,2.9-2.9,4.8-4.8c1.2,1.2,2.5,2.4,3.6,3.6c0.2,0.2,0.4,0.4,0.6,0.6c-1.9,1.9-3.6,3.7-4.8,4.8l0,0l0,0
					C30.3,41,30.2,41.1,30.1,41.2 M40.4,41.1c-0.2-0.1-0.3-0.3-0.5-0.5l0,0c0.1,0.1,0.2,0.2,0.2,0.2C40.2,40.9,40.3,41,40.4,41.1
					 M40.2,40.9L40.2,40.9L40.2,40.9L40.2,40.9 M39.4,31.8c-1.4-1.3-2.8-2.8-4.2-4.2c1.9-2,3.6-3.6,4.4-4.4c0.3-0.3,0.4-0.4,0.4-0.4
					l0,0l0,0c0.1-0.1,0.2-0.2,0.4-0.3c-0.1,0.1-0.2,0.2-0.3,0.3l4.2,4.2l-0.1,0.1C44.1,27.1,42,29.2,39.4,31.8 M44.2,26.9L44.2,26.9
					 M30.5,22.9L30.5,22.9L30.5,22.9l-0.2-0.2C30.4,22.8,30.4,22.8,30.5,22.9L30.5,22.9"/>
				<path fill="#63863A" d="M22.5,44.6c0.1-1.3,0.4-2.5,0.9-3.7c0.6-1.4,1.4-2.8,2.5-3.9c0.1-0.1,0.2-0.2,0.3-0.3l0,0l4.2,4.2
					c-0.1,0.1-0.2,0.2-0.3,0.3c-1.2,1.1-2.5,1.9-3.9,2.5C25,44.2,23.8,44.5,22.5,44.6 M48.1,44.5c-2.8-0.2-5.5-1.4-7.6-3.3
					c-0.1-0.1-0.2-0.2-0.3-0.3c0,0-0.1-0.1-0.2-0.2l4.2-4.2c0.1,0.1,0.3,0.3,0.4,0.4c1.1,1.2,2,2.6,2.6,4
					C47.6,42,47.9,43.2,48.1,44.5 M40.1,40.9L40.1,40.9L40.1,40.9L40.1,40.9 M35.2,36c-0.2-0.2-0.4-0.4-0.6-0.6
					c-1.2-1.2-2.4-2.4-3.6-3.6c1.4-1.4,2.9-2.9,4.2-4.2c1.4,1.4,2.9,2.9,4.2,4.2c-0.2,0.2-0.4,0.4-0.7,0.7
					C37.6,33.6,36.4,34.8,35.2,36 M26.3,27.1c-0.1-0.1-0.2-0.1-0.2-0.2c-1.2-1.2-2.1-2.6-2.7-4.1c-0.5-1.2-0.8-2.4-0.9-3.7
					c2.8,0.3,5.6,1.5,7.8,3.6l0.2,0.2v0l0.1,0.1L26.3,27.1 M44.3,26.9l-4.2-4.2c0.1-0.1,0.2-0.2,0.3-0.3c1.2-1.1,2.5-1.9,3.9-2.5
					c1.2-0.5,2.5-0.8,3.8-0.9c-0.3,2.8-1.4,5.5-3.5,7.6C44.5,26.7,44.4,26.8,44.3,26.9"/>
				<path fill="#809039" d="M12.3,40.9L12.3,40.9 M12.3,22.7L12.3,22.7L12.3,22.7"/>
				<path fill="#816B4C" d="M67.2,17.5h2.1v3.5c1.1-2.4,3.8-4,7-4c3,0,5.9,1.5,7.3,4.5c1.6-3,4.2-4.5,7.8-4.5c4.3,0,7.9,2.8,7.9,8.1
					V40h-2.1V25.4c0-4.4-2.3-6.6-5.8-6.6c-4.4,0-7.1,2.7-7.1,7.3V40h-2.1V25.5c0-4.4-2.2-6.7-5.9-6.7c-4.3,0-7,2.7-7,7.5V40h-2.1
					L67.2,17.5z"/>
				<path fill="#816B4C" d="M113.3,38.7c4,0,6.3-1.4,8.1-3.6l1.4,1.3c-2.1,2.6-5.2,4.2-9.5,4.2c-6.9,0-11.8-5.2-11.8-11.8
					c0-6.7,5.1-11.8,11.3-11.8c6.7,0,11,5,11.1,12.2h-20.2C103.9,35.1,108,38.7,113.3,38.7z M121.7,27.3c-0.6-4.8-3.3-8.6-8.9-8.6
					c-5,0-8.5,3.6-9.1,8.6H121.7z"/>
				<path fill="#816B4C" d="M126.4,17.5h2.1v3.5c1.1-2.4,3.8-4,7-4c3,0,5.9,1.5,7.3,4.5c1.6-3,4.2-4.5,7.8-4.5
					c4.3,0,7.9,2.8,7.9,8.1V40h-2.1V25.4c0-4.4-2.3-6.6-5.8-6.6c-4.4,0-7.1,2.7-7.1,7.3V40h-2.1V25.5c0-4.4-2.2-6.7-5.9-6.7
					c-4.3,0-7,2.7-7,7.5V40h-2.1L126.4,17.5z"/>
				<rect x="162.8" y="0.6" fill="#816B4C" width="2.1" height="39.4"/>
				<path fill="#816B4C" d="M167.6,28.7c0-6.7,5.2-11.8,11.6-11.8c6.4,0,11.6,5.2,11.6,11.8c0,6.7-5.2,11.8-11.6,11.8
					C172.8,40.5,167.6,35.4,167.6,28.7z M188.6,28.7c0-5.7-4-10-9.4-10c-5.5,0-9.4,4.3-9.4,10c0,5.7,4,10,9.4,10
					C184.7,38.7,188.6,34.4,188.6,28.7z"/>
				<path fill="#816B4C" d="M192.3,28.7c0-6.7,5.2-11.8,11.6-11.8c6.4,0,11.6,5.2,11.6,11.8c0,6.7-5.2,11.8-11.6,11.8
					C197.5,40.5,192.3,35.4,192.3,28.7z M213.3,28.7c0-5.7-4-10-9.4-10c-5.5,0-9.4,4.3-9.4,10c0,5.7,4,10,9.4,10
					C209.4,38.7,213.3,34.4,213.3,28.7z"/>
				<path fill="#816B4C" d="M218,17.5h2.1v3.5c1.1-2.4,3.8-4,7-4c3,0,5.9,1.5,7.3,4.5c1.6-3,4.2-4.5,7.8-4.5c4.3,0,7.9,2.8,7.9,8.1
					V40H248V25.4c0-4.4-2.3-6.6-5.8-6.6c-4.4,0-7.1,2.7-7.1,7.3V40H233V25.5c0-4.4-2.2-6.7-5.9-6.7c-4.3,0-7,2.7-7,7.5V40H218
					L218,17.5z"/>
			</g>
		</g>
	</g>
	<g>
		<path fill="#816B4C" d="M254.9,12.3c1.8,0,3.2,1.5,3.2,3.3c0,1.8-1.4,3.3-3.2,3.3c-1.8,0-3.2-1.5-3.2-3.3
			C251.7,13.7,253.1,12.3,254.9,12.3z M254.9,18.3c1.5,0,2.6-1.2,2.6-2.7c0-1.5-1.1-2.7-2.6-2.7c-1.4,0-2.6,1.2-2.6,2.7
			C252.3,17.1,253.4,18.3,254.9,18.3z M253.8,13.9h1.3c0.6,0,1.1,0.4,1.1,1c0,0.5-0.3,0.8-0.6,0.9v0c0,0,0,0,0.1,0.2l0.7,1.3h-0.7
			L255,16h-0.6v1.3h-0.6C253.8,17.3,253.8,13.9,253.8,13.9z M255,15.5c0.3,0,0.6-0.2,0.6-0.6c0-0.4-0.2-0.6-0.6-0.6h-0.5v1.1
			C254.4,15.5,255,15.5,255,15.5z"/>
	</g>
</g>
<g>
	<g>
		<g>
			<path fill="#7F8287" d="M67,46.7h6.5v1h-5.4v5h4.8v1h-4.8v2.7h5.6v1H67C67,57.4,67,46.7,67,46.7z"/>
			<path fill="#7F8287" d="M75.5,50.9h1.1l0,1.3c0.4-0.9,1.3-1.5,2.3-1.5c1.4,0,2.4,1,2.4,2.7v4h-1.1v-3.8c0-1.1-0.5-1.8-1.6-1.8
				c-1.2,0-2,0.8-2,2.1v3.6h-1.1C75.5,57.4,75.5,50.9,75.5,50.9z"/>
			<path fill="#7F8287" d="M83.2,59.1l0.8-0.6c0.5,0.9,1.3,1.4,2.4,1.4c1.4,0,2.2-0.7,2.2-2.4V56c-0.4,0.8-1.3,1.5-2.5,1.5
				c-1.8,0-3.2-1.4-3.2-3.4c0-1.9,1.4-3.4,3.1-3.4c1.2,0,2.1,0.6,2.5,1.5l0-1.4h1.1v6.7c0,2.3-1.3,3.3-3.3,3.3
				C84.9,60.9,83.9,60.1,83.2,59.1z M88.8,54.1c0-1.4-0.9-2.4-2.3-2.4c-1.4,0-2.2,1-2.2,2.4c0,1.4,0.9,2.4,2.2,2.4
				C87.8,56.6,88.8,55.5,88.8,54.1z"/>
			<path fill="#7F8287" d="M91.2,54.1c0-1.9,1.3-3.4,3.1-3.4c1.2,0,2,0.6,2.5,1.5l0-1.4h1.1v6.5h-1.1l0-1.4
				c-0.4,0.9-1.3,1.5-2.5,1.5C92.5,57.5,91.2,56.1,91.2,54.1z M96.8,54.1c0-1.4-0.9-2.4-2.3-2.4c-1.4,0-2.2,1-2.2,2.4
				c0,1.4,0.8,2.4,2.2,2.4C95.9,56.6,96.8,55.5,96.8,54.1z"/>
			<path fill="#7F8287" d="M99.8,59.1l0.8-0.6c0.5,0.9,1.3,1.4,2.4,1.4c1.4,0,2.2-0.7,2.2-2.4V56c-0.4,0.8-1.3,1.5-2.5,1.5
				c-1.8,0-3.2-1.4-3.2-3.4c0-1.9,1.4-3.4,3.1-3.4c1.2,0,2.1,0.6,2.5,1.5l0-1.4h1.1v6.7c0,2.3-1.3,3.3-3.3,3.3
				C101.5,60.9,100.4,60.1,99.8,59.1z M105.3,54.1c0-1.4-0.9-2.4-2.3-2.4c-1.4,0-2.2,1-2.2,2.4c0,1.4,0.9,2.4,2.2,2.4
				C104.4,56.6,105.3,55.5,105.3,54.1z"/>
			<path fill="#7F8287" d="M111.7,56.6c1,0,1.6-0.4,2.1-0.9l0.7,0.7c-0.6,0.7-1.5,1.1-2.7,1.1c-2.1,0-3.5-1.5-3.5-3.4
				c0-1.9,1.5-3.4,3.4-3.4c2.1,0,3.3,1.6,3.3,3.7h-5.5C109.4,55.7,110.3,56.6,111.7,56.6z M113.7,53.7c-0.1-1.1-0.8-2-2.2-2
				c-1.2,0-2.1,0.8-2.2,2H113.7z"/>
			<path fill="#7F8287" d="M122.8,47.7h-3.3v-1h7.7v1H124v9.7h-1.1C122.8,57.4,122.8,47.7,122.8,47.7z"/>
			<path fill="#7F8287" d="M128.7,46.1h1.1v6.1c0.4-0.9,1.3-1.4,2.3-1.4c1.4,0,2.4,1,2.4,2.7v4h-1.1v-3.8c0-1.1-0.5-1.8-1.6-1.8
				c-1.2,0-2,0.8-2,2.1v3.6h-1.1C128.7,57.4,128.7,46.1,128.7,46.1z"/>
			<path fill="#7F8287" d="M136.7,50.9h1.1l0,1.3c0.4-1,1.1-1.4,1.9-1.4c0.5,0,0.8,0.1,1.1,0.3l-0.4,1c-0.2-0.1-0.5-0.3-0.9-0.3
				c-0.9,0-1.7,0.7-1.7,2.2v3.4h-1.1C136.7,57.4,136.7,50.9,136.7,50.9z"/>
			<path fill="#7F8287" d="M141.6,54.1c0-1.9,1.5-3.4,3.5-3.4c1.9,0,3.4,1.5,3.4,3.4s-1.5,3.4-3.4,3.4
				C143.1,57.5,141.6,56,141.6,54.1z M147.4,54.1c0-1.4-0.9-2.4-2.3-2.4c-1.4,0-2.3,1-2.3,2.4s0.9,2.4,2.3,2.4
				C146.5,56.6,147.4,55.5,147.4,54.1z"/>
			<path fill="#7F8287" d="M150.2,54.5v-3.6h1.1v3.6c0,1.3,0.5,2.1,1.8,2.1c1.3,0,1.8-0.7,1.8-2.1v-3.6h1.1v3.6c0,1.9-1.1,3-2.9,3
				C151.3,57.5,150.2,56.4,150.2,54.5z"/>
			<path fill="#7F8287" d="M157.9,59.1l0.8-0.6c0.5,0.9,1.3,1.4,2.4,1.4c1.4,0,2.2-0.7,2.2-2.4V56c-0.4,0.8-1.3,1.5-2.5,1.5
				c-1.8,0-3.2-1.4-3.2-3.4c0-1.9,1.4-3.4,3.1-3.4c1.2,0,2.1,0.6,2.5,1.5l0-1.4h1.1v6.7c0,2.3-1.3,3.3-3.3,3.3
				C159.6,60.9,158.5,60.1,157.9,59.1z M163.4,54.1c0-1.4-0.9-2.4-2.3-2.4c-1.4,0-2.2,1-2.2,2.4c0,1.4,0.9,2.4,2.2,2.4
				C162.5,56.6,163.4,55.5,163.4,54.1z"/>
			<path fill="#7F8287" d="M166.7,46.1h1.1v6.1c0.4-0.9,1.3-1.4,2.3-1.4c1.4,0,2.4,1,2.4,2.7v4h-1.1v-3.8c0-1.1-0.5-1.8-1.6-1.8
				c-1.2,0-2,0.8-2,2.1v3.6h-1.1C166.7,57.4,166.7,46.1,166.7,46.1z"/>
			<path fill="#7F8287" d="M177.6,55.3l0.9-0.5c0.5,0.9,1.2,1.7,2.7,1.7c1.2,0,2.2-0.7,2.2-1.8c0-1.1-0.7-1.6-2-2.2l-0.8-0.4
				c-1.5-0.7-2.4-1.4-2.4-2.9c0-1.5,1.2-2.6,2.8-2.6c1.4,0,2.3,0.7,2.9,1.6l-0.9,0.6c-0.4-0.7-1-1.2-2-1.2c-1.1,0-1.7,0.6-1.7,1.5
				c0,0.9,0.5,1.4,1.7,1.9l0.8,0.4c1.8,0.8,2.7,1.7,2.7,3.3c0,1.8-1.4,2.8-3.3,2.8C179.2,57.5,178.1,56.5,177.6,55.3z"/>
			<path fill="#7F8287" d="M186.8,55.4v-3.6h-1v-0.9h1v-3.4h1.1v3.4h1.8v0.9h-1.8v3.6c0,0.9,0.3,1.1,0.8,1.1c0.4,0,0.7-0.2,0.9-0.4
				l0.6,0.7c-0.3,0.3-0.8,0.6-1.6,0.6C187.5,57.5,186.8,57,186.8,55.4z"/>
			<path fill="#7F8287" d="M191.1,54.1c0-1.9,1.5-3.4,3.5-3.4c1.9,0,3.4,1.5,3.4,3.4s-1.5,3.4-3.4,3.4
				C192.6,57.5,191.1,56,191.1,54.1z M196.8,54.1c0-1.4-0.9-2.4-2.3-2.4c-1.4,0-2.3,1-2.3,2.4s0.9,2.4,2.3,2.4
				C195.9,56.6,196.8,55.5,196.8,54.1z"/>
			<path fill="#7F8287" d="M199.8,50.9h1.1l0,1.3c0.4-1,1.1-1.4,1.9-1.4c0.5,0,0.8,0.1,1.1,0.3l-0.4,1c-0.2-0.1-0.5-0.3-0.9-0.3
				c-0.9,0-1.7,0.7-1.7,2.2v3.4h-1.1C199.8,57.4,199.8,50.9,199.8,50.9z"/>
			<path fill="#7F8287" d="M207.3,56.8l-2.8-5.9h1.2l1.8,4c0.2,0.4,0.3,1.1,0.3,1.1s0.1-0.7,0.3-1.1l1.7-4h1.1l-4.2,9.8h-1.1
				L207.3,56.8z"/>
			<path fill="#7F8287" d="M212.9,55.4v-3.6h-1v-0.9h1v-3.4h1.1v3.4h1.8v0.9H214v3.6c0,0.9,0.3,1.1,0.8,1.1c0.4,0,0.7-0.2,0.9-0.4
				l0.6,0.7c-0.3,0.3-0.8,0.6-1.6,0.6C213.7,57.5,212.9,57,212.9,55.4z"/>
			<path fill="#7F8287" d="M220.7,56.6c1,0,1.6-0.4,2.1-0.9l0.7,0.7c-0.6,0.7-1.5,1.1-2.7,1.1c-2.1,0-3.5-1.5-3.5-3.4
				c0-1.9,1.5-3.4,3.4-3.4c2.1,0,3.3,1.6,3.3,3.7h-5.5C218.5,55.7,219.3,56.6,220.7,56.6z M222.7,53.7c-0.1-1.1-0.8-2-2.2-2
				c-1.2,0-2.1,0.8-2.2,2H222.7z"/>
			<path fill="#7F8287" d="M225.7,46.1h1.1v11.3h-1.1V46.1z"/>
			<path fill="#7F8287" d="M229.2,46.1h1.1v11.3h-1.1V46.1z"/>
			<path fill="#7F8287" d="M232.3,48.2c0-0.5,0.4-0.8,0.8-0.8c0.4,0,0.8,0.3,0.8,0.8s-0.4,0.8-0.8,0.8
				C232.7,49,232.3,48.7,232.3,48.2z M232.6,50.9h1.1v6.5h-1.1V50.9z"/>
			<path fill="#7F8287" d="M235.9,50.9h1.1l0,1.3c0.4-0.9,1.3-1.5,2.3-1.5c1.4,0,2.4,1,2.4,2.7v4h-1.1v-3.8c0-1.1-0.5-1.8-1.6-1.8
				c-1.2,0-2,0.8-2,2.1v3.6h-1.1C235.9,57.4,235.9,50.9,235.9,50.9z"/>
			<path fill="#7F8287" d="M243.7,59.1l0.8-0.6c0.5,0.9,1.3,1.4,2.4,1.4c1.4,0,2.2-0.7,2.2-2.4V56c-0.4,0.8-1.3,1.5-2.5,1.5
				c-1.8,0-3.2-1.4-3.2-3.4c0-1.9,1.4-3.4,3.1-3.4c1.2,0,2.1,0.6,2.5,1.5l0-1.4h1.1v6.7c0,2.3-1.3,3.3-3.3,3.3
				C245.3,60.9,244.3,60.1,243.7,59.1z M249.2,54.1c0-1.4-0.9-2.4-2.3-2.4c-1.4,0-2.2,1-2.2,2.4c0,1.4,0.9,2.4,2.2,2.4
				C248.2,56.6,249.2,55.5,249.2,54.1z"/>
		</g>
	</g>
</g>
</svg>
